<svg width="32" height="32" viewBox="0 0 32 32" fill="none" xmlns="http://www.w3.org/2000/svg">
<rect width="32" height="32" fill="white"/>
<path d="M1.91843 9.80064C1.06673 10.4073 0.567548 11.6921 1.50853 13.2283C2.44951 14.7645 15.8931 25.1336 16.3859 25.4215C16.8789 25.7097 17.3721 25.7576 18.6264 24.7496C19.8813 23.7413 30.3653 15.8656 30.6358 15.6287C31.0663 15.2518 31.1735 14.3325 30.6358 13.9003C30.6358 13.9003 17.9346 23.4052 17.5188 23.7895C17.1031 24.1735 16.4561 23.5495 16.5776 22.7335C16.6996 21.9172 16.7894 21.8211 18.4026 20.5731C20.0158 19.3248 29.1622 12.3928 29.5772 12.0864C30.0471 11.7391 30.0584 11.1258 29.2887 10.5834C28.2185 9.82937 16.6538 1.60473 16.2669 1.31682C15.879 1.02866 15.3421 0.766863 14.5356 1.34293C13.7291 1.91899 3.48311 8.68578 1.91843 9.80064Z" fill="#316DC2"/>
<path d="M16.3859 26.4333C16.0624 26.2442 10.1639 21.7154 5.87955 18.1892V25.5413C5.87623 30.9082 20.9969 33.7757 26.0062 27.1781V20.1512C22.9289 22.4764 19.3294 25.1965 18.6264 25.7611C17.3721 26.7692 16.8789 26.7212 16.3859 26.4333Z" fill="#316DC2"/>
<path d="M22.7845 18.3718C22.7845 18.3718 25.0327 19.5021 25.1926 24.0505L24.1034 23.7503L23.232 25.6014C22.8633 20.6207 20.8557 19.8985 20.8557 19.8985L22.7845 18.3718Z" fill="#98B8E6"/>
</svg>
